<svg width="768" height="64" viewBox="0 0 768 64" fill="none" xmlns="http://www.w3.org/2000/svg">
<path d="M27.9467 25.28C28.48 26.0267 28.6933 26.88 28.6933 27.84C28.6933 28.6933 28.48 29.5467 27.9467 30.1867C27.6267 30.6133 27.2 30.9333 26.7733 31.1467C27.52 31.4667 28.2667 31.8933 28.6933 32.64C29.6533 34.24 29.5467 36.16 28.5867 37.6533C28.2667 38.1867 27.84 38.6133 27.4133 38.9333C26.88 39.36 26.24 39.68 25.4933 39.7867C24.7467 40 23.8933 40 23.1467 40H15.68V23.5733H23.5733C25.28 23.36 26.88 24 27.9467 25.28ZM19.0933 26.4533V30.08H23.1467C23.7867 30.08 24.32 29.9733 24.8533 29.6533C25.28 29.3333 25.6 28.8 25.4933 28.16C25.6 27.52 25.1733 26.88 24.64 26.6667C24 26.4533 23.36 26.4533 22.72 26.4533H19.0933ZM19.0933 32.7467V37.12H23.04C23.5733 37.12 24.2133 37.0133 24.7467 36.8C25.4933 36.3733 25.92 35.6267 25.8133 34.7733C25.92 34.0267 25.4933 33.28 24.7467 33.0667C24.2133 32.8533 23.68 32.7467 23.1467 32.7467H19.0933Z" fill="#96ACAF"/>
<path d="M36.6933 32.64C37.12 32.64 37.5466 32.5333 37.9733 32.32C38.4 32.2133 38.72 31.8933 38.72 31.4667C38.72 31.04 38.5067 30.6133 38.1867 30.4C37.6533 30.1867 37.2267 30.08 36.6933 30.08C36.0533 29.9733 35.52 30.1867 35.0933 30.6133C34.88 30.9333 34.6667 31.36 34.6667 31.68H31.5733C31.5733 30.72 31.8933 29.8667 32.4267 29.0133C33.4933 27.84 35.2 27.2 36.8 27.3067C38.08 27.3067 39.2533 27.52 40.4267 28.16C41.4933 28.6933 42.1333 29.8667 42.0267 31.1467V38.1867C42.0267 38.5067 42.0267 38.8267 42.24 39.04C42.3467 39.2533 42.56 39.36 42.6667 39.36V39.7867H39.1467C39.04 39.5733 38.9333 39.36 38.9333 39.04C38.8267 38.8267 38.8267 38.6133 38.8267 38.2933C38.4 38.72 37.8667 39.1467 37.3333 39.4667C36.5867 39.8933 35.7333 40.1067 34.9867 40.1067C34.0267 40.1067 32.96 39.7867 32.2133 39.1467C31.4667 38.5067 31.04 37.44 31.1467 36.48C31.1467 35.2 31.7867 33.92 32.96 33.28C33.8133 32.8533 34.7733 32.64 35.7333 32.5333L36.6933 32.64ZM38.72 34.0267C38.5067 34.1333 38.2933 34.24 38.08 34.3467C37.76 34.4533 37.5467 34.56 37.2267 34.56L36.5867 34.6667C36.0533 34.7733 35.6267 34.88 35.0933 35.0933C34.6667 35.3067 34.4533 35.84 34.3467 36.2667C34.24 36.8 34.4533 37.2267 34.7733 37.5467C35.0933 37.76 35.52 37.8667 35.84 37.8667C36.48 37.8667 37.2267 37.6533 37.76 37.2267C38.4 36.6933 38.72 35.84 38.72 34.9867V34.0267Z" fill="#96ACAF"/>
<path d="M51.9466 32.2133C51.84 31.7866 51.7333 31.36 51.52 31.04C51.0933 30.5066 50.4533 30.2933 49.8133 30.2933C48.8533 30.2933 47.8933 30.9333 47.5733 31.8933C47.36 32.64 47.2533 33.3866 47.2533 34.1333C47.2533 34.88 47.36 35.6266 47.5733 36.2666C47.8933 37.2266 48.7466 37.8667 49.7066 37.76C50.3466 37.8667 50.88 37.6533 51.3066 37.12C51.6266 36.6933 51.84 36.16 51.9466 35.52H55.2533C55.1466 36.48 54.8266 37.44 54.1866 38.2933C53.12 39.68 51.52 40.5333 49.7066 40.4267C48.1066 40.5333 46.5066 39.8933 45.3333 38.72C44.3733 37.44 43.84 35.84 43.9466 34.24C43.84 32.5333 44.3733 30.8266 45.44 29.44C46.5066 28.2666 48 27.6266 49.6 27.7333C50.88 27.6266 52.16 28.0533 53.3333 28.6933C54.4 29.5466 55.04 30.9333 55.04 32.32L51.9466 32.2133Z" fill="#96ACAF"/>
<path d="M57.3867 23.5733H60.48V32.5333L64.5333 27.84H68.48L64.1067 32.4266L68.6933 40H64.8533L61.8667 34.7733L60.48 36.16V40H57.3867V23.5733Z" fill="#96ACAF"/>
<path d="M70.2934 40V23.5733H73.7067V29.76H80.1067V23.5733H83.6267V40H80.1067V32.64H73.7067V40H70.2934Z" fill="#96ACAF"/>
<path d="M89.7066 27.84V35.2C89.7066 35.7333 89.7066 36.2666 89.92 36.8C90.24 37.44 90.88 37.76 91.6266 37.76C92.5866 37.8666 93.44 37.3333 93.8666 36.3733C94.08 35.7333 94.1866 35.0933 94.1866 34.4533V27.84H97.3866V40H94.2933V38.2933C94.1866 38.4 94.08 38.5066 94.08 38.6133C93.9733 38.8266 93.8666 38.9333 93.6533 39.04C93.2266 39.4666 92.6933 39.7866 92.16 40C91.6266 40.2133 91.0933 40.2133 90.56 40.2133C89.0666 40.4266 87.68 39.5733 86.9333 38.2933C86.5066 37.3333 86.4 36.2666 86.4 35.2V27.84H89.7066Z" fill="#96ACAF"/>
<path d="M110.933 29.2266C111.893 30.5066 112.32 32.1066 112.32 33.7066C112.32 35.4133 111.893 37.0133 110.933 38.4C110.08 39.68 108.693 40.32 107.2 40.32C106.347 40.32 105.493 40.1066 104.853 39.68C104.427 39.36 104 38.9333 103.68 38.5066V40H100.587V23.5733H103.787V29.44C104.107 28.9066 104.64 28.48 105.173 28.16C105.813 27.7333 106.667 27.52 107.413 27.52C108.693 27.52 109.973 28.16 110.933 29.2266ZM108.267 36.6933C108.8 35.9466 109.013 34.9866 109.013 34.0266C109.013 33.28 108.907 32.5333 108.693 31.8933C108.373 30.8266 107.413 30.1866 106.347 30.2933C105.28 30.1866 104.32 30.8266 104 31.8933C103.787 32.5333 103.573 33.28 103.68 34.0266C103.68 34.9866 103.893 35.84 104.427 36.5866C104.853 37.2266 105.707 37.6533 106.56 37.6533C107.093 37.76 107.84 37.3333 108.267 36.6933Z" fill="#96ACAF"/>
<path d="M186.349 35.5848C185.139 38.4781 182.04 40.3187 178.942 40.3187C174.363 40.3187 170.668 36.4897 170.668 31.9436C170.668 27.4293 174.405 23.6763 178.855 23.6763C182.052 23.6763 185.216 25.5384 186.448 28.5394H183.065C182.55 27.9269 181.91 27.4326 181.186 27.0903C180.463 26.7481 179.675 26.5659 178.875 26.5562C175.959 26.5562 173.626 29.077 173.626 32.0513C173.626 34.8728 176.045 37.4377 178.896 37.4377C180.473 37.4377 181.834 36.7267 182.914 35.5848H186.349ZM199.718 27.9885H197.091V29.6813C196.644 29.0315 196.043 28.5022 195.342 28.1403C194.642 27.7784 193.862 27.5951 193.073 27.6068C191.324 27.6068 189.833 28.2716 188.621 29.6813C187.517 30.9361 187.082 32.3109 187.082 33.9668C187.082 35.6228 187.623 37.1699 188.576 38.317C189.615 39.5543 191.128 40.3279 192.985 40.3279C194.497 40.3279 196.182 39.5553 197.089 38.317V39.9442H199.716L199.718 27.9885ZM197.006 33.9443C197.006 35.9962 195.57 37.5352 193.518 37.5147C191.573 37.5352 189.975 36.0311 189.975 34.0756C189.975 31.9898 191.444 30.3985 193.561 30.42C195.592 30.3995 197.016 31.9467 197.016 33.9453M201.865 39.9432H204.507V38.316C205.458 39.7267 206.928 40.3269 208.57 40.3269C210.232 40.3269 211.897 39.6087 212.959 38.316C213.913 37.1905 214.518 35.4063 214.498 33.9658C214.498 30.6129 211.984 27.6109 208.486 27.6109C207.125 27.6109 205.592 28.0859 204.749 29.2525V23.9707H201.876L201.865 39.9432ZM208.18 30.42C210.232 30.42 211.615 32.0103 211.615 33.9884C211.615 35.987 210.209 37.5136 208.18 37.5136C206.019 37.5136 204.572 35.9029 204.572 33.817C204.572 31.84 206.257 30.4313 208.18 30.4313M216.121 23.9707H219.002V39.9452H216.121V23.9707ZM233.111 35.2216C233.176 34.7681 233.262 34.3146 233.262 33.8612C233.262 30.5472 230.553 27.6027 227.134 27.6027C223.541 27.6027 220.778 30.5165 220.778 34.0253C220.778 37.5136 223.604 40.3115 227.09 40.3115C229.624 40.3115 232.101 38.6053 232.831 36.4661H229.666C229.102 37.0817 228.063 37.4921 226.981 37.4921C225.53 37.4921 224.252 36.5841 223.821 35.2021L233.111 35.2216ZM223.778 32.6731C224.211 31.3126 225.683 30.42 227.112 30.42C228.585 30.42 229.905 31.2695 230.381 32.6731H223.778ZM234.754 23.9707H236.359V38.4883H242.963V39.9432H234.755L234.754 23.9707ZM254.746 28.1341H253.213V30.3913C252.328 28.7046 250.451 27.8797 248.596 27.8797C246.957 27.8797 245.296 28.4676 243.502 30.3913C243.068 30.7812 242.266 32.4022 242.266 33.9822C242.266 35.7777 243.005 37.2695 243.438 37.7455C244.951 39.465 246.871 40.2079 248.639 40.2079C250.486 40.2079 252.307 39.3902 253.215 37.7455V39.9565H254.746V28.1341ZM248.594 29.4084C251.227 29.4084 253.211 31.5065 253.211 34.1238C253.211 36.5903 251.098 38.7099 248.635 38.7099C246.111 38.7099 243.867 36.699 243.867 34.093C243.867 31.4768 246.003 29.3992 248.592 29.3992M256.593 39.9473H258.111V37.9312C259.041 39.4568 261.115 40.2089 262.823 40.2089C264.551 40.2089 266.02 39.7759 267.663 37.9312C268.315 37.2171 269.074 35.7028 269.074 33.9945C269.074 30.4898 266.107 27.8746 262.672 27.8746C260.922 27.8746 258.978 28.6954 258.198 30.339V23.9707H256.593V39.9473ZM262.714 29.4074C265.351 29.4074 267.467 31.3547 267.467 34.0376C267.467 36.6026 265.393 38.7099 262.821 38.7099C260.228 38.7099 258.089 36.7852 258.089 34.1464C258.089 32.8475 258.413 31.7661 259.342 30.8366C260.228 29.9276 261.438 29.4084 262.713 29.4084M271.538 36.4538C271.528 36.7404 271.576 37.0262 271.678 37.2941C271.78 37.562 271.936 37.8066 272.134 38.0135C272.333 38.2205 272.571 38.3854 272.834 38.4987C273.098 38.612 273.381 38.6712 273.668 38.673C274.797 38.673 275.72 37.8758 275.72 36.7236C275.72 35.3016 274.604 34.7743 273.444 34.4603C272.692 34.2243 271.897 33.9863 271.312 33.4261C270.684 32.866 270.358 32.0257 270.358 31.1854C270.358 29.2668 271.92 27.8838 273.767 27.8838C275.527 27.8838 277.022 29.353 277.022 31.0766H275.43C275.43 30.0425 274.636 29.4176 273.603 29.4176C273.169 29.4176 272.752 29.5902 272.444 29.8974C272.136 30.2045 271.963 30.6213 271.962 31.0561C271.962 32.3489 272.993 32.6936 274.014 33.0055C275.774 33.5657 277.315 34.3187 277.315 36.4528C277.315 38.672 275.688 40.2058 273.499 40.2058C271.498 40.2058 269.808 38.4565 269.915 36.4528H271.519" fill="#96ACAF"/>
<path d="M361.813 21.76C360.747 20.6933 359.573 20.9067 358.72 21.3333C359.147 20.48 359.36 19.3067 358.293 18.24C356.8 16.96 355.627 17.8133 354.773 18.24C351.787 19.6267 350.187 19.7333 348.267 19.7333C346.347 19.7333 344.747 19.6267 341.76 18.24C340.907 17.8133 339.627 16.96 338.24 18.24C337.173 19.3067 337.387 20.5867 337.813 21.3333C336.96 20.9067 335.787 20.6933 334.72 21.76C333.44 23.2533 334.293 24.5333 334.72 25.3867C336.107 28.3733 336.213 30.08 336.213 32C336.213 33.92 336.107 35.6267 334.72 38.6133C334.293 39.4667 333.44 40.7467 334.72 42.24C335.787 43.3067 336.96 43.0933 337.813 42.6667C337.387 43.52 337.173 44.6933 338.24 45.76C339.733 47.04 340.907 46.1867 341.76 45.76C344.747 44.3733 346.347 44.2667 348.267 44.2667C350.187 44.2667 351.787 44.3733 354.773 45.76C355.627 46.1867 356.907 47.04 358.293 45.76C359.36 44.6933 359.147 43.52 358.72 42.6667C359.573 43.0933 360.747 43.3067 361.813 42.24C363.093 40.7467 362.24 39.4667 361.813 38.6133C360.427 35.6267 360.32 33.92 360.32 32C360.32 30.08 360.427 28.3733 361.813 25.3867C362.24 24.5333 363.093 23.2533 361.813 21.76ZM351.36 34.0267L357.227 40.96L350.187 35.2C350.187 35.2 349.227 34.24 348.16 34.24C347.093 34.24 346.133 35.2 346.133 35.2L339.2 41.0667L344.96 34.1333C344.96 34.1333 345.92 33.1733 345.92 32.1067C345.92 31.04 344.96 30.08 344.96 30.08L339.2 23.04L346.133 28.9067C346.133 28.9067 347.093 29.8667 348.16 29.8667C349.227 29.8667 350.187 28.9067 350.187 28.9067L357.12 23.04L351.253 30.08C351.253 30.08 350.293 31.04 350.293 32.1067C350.4 33.0667 351.36 34.0267 351.36 34.0267Z" fill="#96ACAF"/>
<path d="M408.213 31.1466C408.533 30.9333 413.547 29.0133 413.12 24.5333C412.587 18.7733 406.507 19.2 404.373 19.2H393.28V19.4133C394.453 19.52 394.987 20.16 394.987 22.2933L394.88 41.92C394.88 43.84 394.027 44.3733 392.96 44.5866V44.9066H407.68C409.6 44.9066 414.4 44.2666 414.613 38.6133C414.827 37.2266 414.4 32.64 408.213 31.1466ZM406.187 43.7333C404.8 44.0533 402.773 43.9466 401.173 43.9466C399.68 43.84 399.68 43.2 399.68 42.56C399.68 42.56 399.68 39.8933 399.787 36.48C399.893 30.1866 400.107 21.2266 400.107 21.12C400.107 20.2666 400.32 20.16 401.067 20.16C401.6 20.16 401.813 20.16 402.88 20.16C404.267 20.16 408 20.2666 408.213 25.3866C408.427 30.5066 403.093 31.1466 401.707 31.2533C401.6 31.2533 401.6 31.4666 401.707 31.4666C405.867 31.68 409.92 33.1733 409.707 38.72C409.707 42.4533 407.573 43.4133 406.187 43.7333Z" fill="#96ACAF"/>
<path d="M426.453 29.44C422.827 28.5867 420.373 27.84 420.373 24.7467C420.373 22.4 422.187 19.84 426.453 20.0533C429.973 20.2667 431.787 21.9733 432.213 23.8933H432.533L432.427 19.3067H432.213C432.107 19.4133 432 19.52 431.787 19.6267C431.253 19.84 430.613 19.6267 430.613 19.6267C427.84 18.88 424.427 18.9867 424.427 18.9867C420.587 19.0933 416.32 20.3733 415.68 25.4933C415.253 29.12 418.027 31.1467 418.027 31.1467C420.373 33.1733 425.173 33.8133 426.987 34.56C429.227 35.6267 429.333 37.8667 429.227 38.9333C428.907 42.6667 426.133 44.0533 422.827 44.0533C419.413 44.0533 417.92 42.56 417.28 42.0267C416.32 41.28 416.32 40.32 416.213 39.7867H415.893V44.6933H416.213C416.427 44.16 416.64 43.9467 417.28 44.16C420.8 45.12 423.36 45.2267 423.36 45.2267C429.44 45.44 433.813 42.9867 434.133 37.9733C434.56 30.72 428.16 29.8667 426.453 29.44Z" fill="#96ACAF"/>
<path d="M380.48 19.2C379.307 19.2 368.533 19.2 368.533 19.2V19.52C369.387 19.6266 370.133 20.2666 370.133 21.12C370.347 24 370.453 41.6 370.027 43.52C369.92 44.0533 369.067 44.48 368.32 44.5866V44.9066H381.653C386.88 44.9066 392.64 40 392.64 32C392.853 22.8266 385.813 19.0933 380.48 19.2ZM382.933 43.2C381.013 43.84 378.987 44.0533 376.533 43.84C375.147 43.7333 375.147 42.88 375.147 42.56C375.04 40.1066 375.04 23.36 375.147 21.2266C375.253 20.0533 375.467 20.16 376.533 20.16C377.493 20.16 378.667 20.2666 378.667 20.2666C384.96 20.6933 387.307 25.6 387.733 31.8933C388.267 38.1866 385.28 42.3466 382.933 43.2Z" fill="#96ACAF"/>
<path d="M493.653 39.4666C496 39.4666 498.347 38.4 499.733 36.5866L501.653 37.9733C499.947 40.1066 497.493 41.3866 494.827 41.7066C492.16 42.0266 489.387 41.28 487.253 39.5733L488.747 37.76C490.24 38.8266 491.84 39.4666 493.653 39.4666ZM493.653 24.5333C491.947 24.5333 490.24 25.0666 488.853 26.1333L487.36 24.32C489.173 22.9333 491.413 22.1866 493.653 22.1866C496.747 22.1866 499.733 23.5733 501.653 26.0266L499.733 27.4133C498.24 25.6 496 24.5333 493.653 24.5333ZM500.48 28.48L499.84 30.72H491.733L492.373 28.48H500.48ZM490.56 35.52L491.2 33.28H499.413L498.773 35.52H490.56Z" fill="#96ACAF"/>
<path d="M507.093 39.36C504.32 39.36 501.76 37.8667 500.373 35.4133H508.373L509.013 33.1733H499.627C499.413 32.32 499.413 31.4667 499.627 30.6133H509.547L510.187 28.3733H500.373C501.653 25.92 504.32 24.4267 507.093 24.4267C508.8 24.4267 510.507 24.96 511.893 26.0267L513.387 24.2133C509.333 21.0133 503.36 21.44 499.733 25.1733C496.107 28.9067 496.107 34.7733 499.733 38.5067C503.36 42.24 509.227 42.6667 513.387 39.4667L511.893 37.6533C510.507 38.8267 508.8 39.36 507.093 39.36Z" fill="#96ACAF"/>
<path d="M519.893 38.08V25.4933H528.427V26.9867H521.707V30.9333H528.427V32.4267H521.707V36.3733H528.427V37.8667H519.893V38.08ZM562.347 38.08V25.4933H570.88V26.9867H564.16V30.9333H570.88V32.4267H564.16V36.3733H570.88V37.8667H562.347V38.08ZM556.16 34.7733L558.72 28.48H560.64C560.107 29.76 558.187 34.6667 557.44 36.3733C556.16 39.36 554.667 40.96 553.067 41.0667V39.4667C554.027 39.1467 555.093 37.8667 555.093 36.6933L551.893 28.48H553.92L556.16 34.7733ZM579.84 34.4533C579.84 34.4533 579.84 30.4 579.84 28.48H581.653V38.08H579.84V37.0133L579.52 37.3333C579.413 37.5467 578.56 38.2934 576.853 38.2934C574.08 38.2934 572.693 36.9067 572.693 34.0267V28.5867H574.507V34.4533C574.507 35.9467 575.467 36.8 577.173 36.8C578.453 36.8 579.84 35.7333 579.84 34.4533ZM586.56 29.3333C587.093 28.48 587.947 28.3733 589.013 28.3733C589.44 28.3733 589.867 28.3733 590.187 28.48L589.653 30.1867C589.227 30.08 588.8 30.08 588.373 29.9733C586.88 29.9733 586.027 31.04 586.027 32.8533V38.2934H584.213V28.6933H586.027V30.08L586.56 29.3333ZM538.347 29.76V28.48H540.16V38.08H538.347V36.6933C538.347 36.6933 537.707 38.2934 534.933 38.2934C532.16 38.2934 530.027 36.16 530.027 33.28C530.027 30.4 532.16 28.2667 534.933 28.2667C536.32 28.2667 537.493 28.8 538.347 29.76ZM535.147 36.8C537.067 36.8 538.453 35.3067 538.453 33.3867C538.453 31.36 537.067 29.9733 535.147 29.9733C533.227 29.9733 531.84 31.4667 531.84 33.3867C531.84 34.24 532.16 35.2 532.693 35.84C533.44 36.3733 534.293 36.6933 535.147 36.8ZM547.2 32.4267C549.44 32.7467 550.507 33.7067 550.507 35.3067C550.507 37.12 548.8 38.2934 546.027 38.2934C544.64 38.2934 543.147 37.9733 541.973 37.2267L542.827 35.9467C543.787 36.5867 544.96 36.9067 546.133 36.9067C547.733 36.9067 548.693 36.3733 548.693 35.4133C548.693 34.56 547.627 34.3467 546.667 34.1333L545.6 34.0267C543.36 33.7067 542.293 32.7467 542.293 31.36C542.293 29.5467 543.893 28.3733 546.347 28.3733C547.733 28.2667 549.013 28.5867 550.187 29.2267L549.44 30.6133C548.48 30.1867 547.413 29.8667 546.347 29.8667C545.067 29.8667 544.213 30.4 544.213 31.2533C544.213 32.2133 545.493 32.32 546.133 32.4267H547.2ZM595.627 28.2667C598.4 28.2667 600.747 30.5067 600.747 33.28C600.747 36.0533 598.507 38.2934 595.627 38.2934C592.853 38.2934 590.507 36.0533 590.507 33.28C590.507 30.5067 592.747 28.2667 595.627 28.2667ZM595.627 36.8C597.547 36.8 599.147 35.2 599.147 33.3867C599.147 31.4667 597.547 29.9733 595.627 29.9733C593.707 29.9733 592.107 31.5733 592.107 33.3867C592.107 35.2 593.707 36.8 595.627 36.8Z" fill="#96ACAF"/>
<path d="M645.359 42.3968C645.37 42.368 647.261 37.6693 649.566 31.9434L653.756 21.5541H659.796L669.059 42.416C669.06 42.4288 667.801 42.4352 666.258 42.4309L663.455 42.4234L661.757 38.3168H657.083L652.395 38.3541L650.852 42.4373H645.342L645.359 42.3968ZM660.188 34.6101C660.145 34.4501 656.86 26.5856 656.842 26.6037C656.823 26.6218 653.794 34.6336 653.794 34.6624C653.794 34.6677 655.236 34.673 656.999 34.673H660.205L660.188 34.6101ZM671.491 32V21.5509H676.012L679.361 25.4197L682.727 29.2885C682.738 29.2885 684.251 27.5477 686.093 25.4197L689.442 21.5509H693.973V42.4501H688.786V35.9413L688.761 29.4421C688.747 29.4474 687.477 30.9162 685.94 32.7061L683.146 35.9594H682.335L679.536 32.6997L676.693 29.44C676.683 29.4389 676.672 32.3669 676.672 35.9466V42.4533H671.485L671.491 32ZM697.94 32.0074L697.948 21.5541L702.428 21.5456C707.147 21.5349 708.124 21.553 709.041 21.6597C712.214 22.0224 714.795 23.3237 716.473 25.409C717.682 26.9024 718.361 28.5941 718.622 30.7296C718.686 31.2576 718.697 32.6848 718.638 33.249C718.481 34.7936 718.089 36.1344 717.452 37.2949C715.876 40.1696 712.897 41.8816 708.731 42.3328C707.838 42.4394 707.251 42.4373 702.602 42.4373H697.908L697.916 31.984L697.94 32.0074ZM707.331 38.5941C708.901 38.4725 710.181 38.0074 711.171 37.2C711.52 36.8992 711.836 36.5632 712.115 36.1973C712.734 35.344 713.126 34.2794 713.295 33.024C713.345 32.6453 713.345 31.3173 713.294 30.9493C713.113 29.6416 712.735 28.624 712.126 27.7973C711.825 27.4138 711.485 27.0637 711.109 26.753C710.178 26.0224 708.969 25.5829 707.483 25.4357C707.307 25.4186 706.318 25.4058 705.163 25.4058H703.15V38.6133H705.041L707.331 38.5813V38.5941Z" fill="#96ACAF"/>
<path d="M723.52 43.8752V36.1866L734.482 25.216V40.592H749.858L738.886 51.5626H723.52V43.8752ZM757.316 45.92L752 40.6144V23.1211H734.507L723.823 12.4373H762.636L762.64 31.6512L762.667 50.9653C762.672 51.0259 762.667 51.0871 762.65 51.1456C762.628 51.2043 761.242 49.8474 757.316 45.92Z" fill="#96ACAF"/>
</svg>
